<?xml version="1.0" standalone="no"?>
<!DOCTYPE svg PUBLIC "-//W3C//DTD SVG 20010904//EN"
 "http://www.w3.org/TR/2001/REC-SVG-20010904/DTD/svg10.dtd">
<svg version="1.0" xmlns="http://www.w3.org/2000/svg"
 width="512.000000pt" height="512.000000pt" viewBox="0 0 512.000000 512.000000"
 preserveAspectRatio="xMidYMid meet">

<g transform="translate(0.000000,512.000000) scale(0.100000,-0.100000)"
fill="#000000" stroke="none">
<path d="M2330 5110 c-494 -48 -950 -230 -1350 -538 -195 -150 -448 -432 -594
-662 -63 -99 -186 -351 -230 -471 -49 -134 -102 -340 -128 -499 -31 -195 -31
-565 0 -760 45 -276 116 -498 237 -745 132 -269 269 -460 489 -681 221 -220
412 -357 681 -489 247 -121 469 -192 745 -237 195 -31 565 -31 760 0 276 45
498 116 745 237 269 132 460 269 681 489 220 221 357 412 489 681 88 179 132
296 180 476 63 240 78 371 78 649 0 278 -15 409 -78 649 -48 180 -92 297 -180
476 -132 269 -269 460 -489 681 -221 220 -412 357 -681 489 -246 121 -474 193
-740 235 -147 23 -475 34 -615 20z m500 -251 c521 -56 1048 -321 1412 -708
342 -365 559 -829 618 -1326 16 -128 16 -402 0 -530 -128 -1071 -964 -1907
-2035 -2035 -128 -16 -402 -16 -530 0 -726 87 -1362 502 -1733 1131 -158 268
-264 585 -302 904 -16 128 -16 402 0 530 97 810 607 1510 1344 1843 387 175
790 238 1226 191z"/>
<path d="M1451 3558 c-88 -15 -156 -74 -187 -160 -21 -61 -21 -1615 1 -1677
22 -63 61 -108 120 -136 101 -50 213 -29 286 52 67 74 64 35 64 923 0 887 3
849 -63 922 -59 65 -135 91 -221 76z"/>
<path d="M3583 3559 c-57 -10 -93 -31 -135 -77 -66 -73 -63 -35 -63 -922 0
-888 -3 -849 64 -923 122 -136 345 -89 406 84 22 62 22 1616 1 1677 -41 114
-155 181 -273 161z"/>
<path d="M1075 3168 c-83 -29 -141 -103 -157 -201 l-11 -65 -36 5 c-49 6 -101
-23 -123 -67 -16 -30 -18 -67 -18 -280 0 -213 2 -250 18 -280 22 -44 74 -73
124 -67 l36 5 7 -52 c16 -118 81 -195 188 -221 l27 -7 0 621 c0 491 -3 621
-12 620 -7 0 -26 -5 -43 -11z"/>
<path d="M3990 2560 l0 -622 28 7 c50 12 92 37 123 73 39 44 55 81 64 148 l7
52 36 -5 c50 -6 102 23 124 67 16 30 18 67 18 280 0 213 -2 250 -18 280 -22
44 -74 73 -124 67 l-36 -5 -7 52 c-16 118 -81 195 -187 221 l-28 7 0 -622z"/>
<path d="M1860 2560 l0 -240 700 0 700 0 0 240 0 240 -700 0 -700 0 0 -240z"/>
</g>
</svg>
